<svg width="230" height="236" viewBox="0 0 230 236" fill="none" xmlns="http://www.w3.org/2000/svg">
<rect width="230" height="236" fill="#1BA1CC"/>
<path d="M44.875 76.625H76.75C89.9583 76.625 99.375 78.5833 105 82.5C110.625 86.4167 113.438 92.0417 113.438 99.375C113.438 103.375 112.708 106.771 111.25 109.562C109.833 112.354 108.021 114.562 105.812 116.188C103.646 117.812 101.417 118.917 99.125 119.5V120.125C101.625 120.75 104.104 121.792 106.562 123.25C109.062 124.667 111.125 126.812 112.75 129.688C114.417 132.521 115.25 136.375 115.25 141.25C115.25 146.792 113.833 151.562 111 155.562C108.208 159.562 104.208 162.646 99 164.812C93.7917 166.938 87.6042 168 80.4375 168H44.875V76.625ZM69.5625 111.688H77C81.0833 111.688 83.9583 110.854 85.625 109.188C87.2917 107.479 88.125 105.417 88.125 103C88.125 100.5 87.1667 98.6042 85.25 97.3125C83.375 95.9792 80.4583 95.3125 76.5 95.3125H69.5625V111.688ZM69.5625 129.75V148.938H78.25C82.5417 148.938 85.5417 148.021 87.25 146.188C88.9583 144.312 89.8125 141.979 89.8125 139.188C89.8125 137.562 89.4375 136.042 88.6875 134.625C87.9792 133.167 86.75 132 85 131.125C83.25 130.208 80.8333 129.75 77.75 129.75H69.5625ZM190.875 140.25C190.875 145.208 189.625 149.917 187.125 154.375C184.625 158.792 180.729 162.375 175.438 165.125C170.188 167.875 163.396 169.25 155.062 169.25C150.896 169.25 147.229 169.062 144.062 168.688C140.938 168.312 138.021 167.708 135.312 166.875C132.604 166 129.792 164.875 126.875 163.5V141.5C131.833 144 136.833 145.917 141.875 147.25C146.917 148.542 151.479 149.188 155.562 149.188C158.021 149.188 160.021 148.896 161.562 148.312C163.146 147.729 164.312 146.938 165.062 145.938C165.812 144.896 166.188 143.708 166.188 142.375C166.188 140.792 165.625 139.458 164.5 138.375C163.417 137.25 161.667 136.083 159.25 134.875C156.833 133.667 153.646 132.167 149.688 130.375C146.312 128.792 143.25 127.167 140.5 125.5C137.792 123.833 135.458 121.938 133.5 119.812C131.583 117.646 130.104 115.125 129.062 112.25C128.021 109.375 127.5 105.979 127.5 102.062C127.5 96.1875 128.938 91.2708 131.812 87.3125C134.729 83.3125 138.771 80.3125 143.938 78.3125C149.146 76.3125 155.146 75.3125 161.938 75.3125C167.896 75.3125 173.25 75.9792 178 77.3125C182.792 78.6458 187.083 80.1667 190.875 81.875L183.312 100.938C179.396 99.1458 175.542 97.7292 171.75 96.6875C167.958 95.6042 164.438 95.0625 161.188 95.0625C159.062 95.0625 157.312 95.3333 155.938 95.875C154.604 96.375 153.604 97.0625 152.938 97.9375C152.312 98.8125 152 99.8125 152 100.938C152 102.354 152.542 103.625 153.625 104.75C154.75 105.875 156.604 107.104 159.188 108.438C161.812 109.729 165.375 111.417 169.875 113.5C174.333 115.5 178.125 117.667 181.25 120C184.375 122.292 186.75 125.062 188.375 128.312C190.042 131.521 190.875 135.5 190.875 140.25Z" fill="white"/>
</svg>
